<svg xmlns="http://www.w3.org/2000/svg" data-name="Warstwa 1" viewBox="0 0 24 30" x="0px" y="0px"><title>Weather</title><path d="M21.79,11.54a1,1,0,0,0-1.15.42A5.5,5.5,0,0,1,10.51,9a5.53,5.53,0,0,1,4-5.28,1,1,0,0,0-.06-1.93,10.5,10.5,0,1,0,8.07,10.76A1,1,0,0,0,21.79,11.54ZM12,20.5A8.5,8.5,0,0,1,10.84,3.58a7.5,7.5,0,0,0,8.91,11.93A8.5,8.5,0,0,1,12,20.5Z"/><text x="0" y="39" fill="#000000" font-size="5px" font-weight="bold" font-family="'Helvetica Neue', Helvetica, Arial-Unicode, Arial, Sans-serif">Created by Martin</text><text x="0" y="44" fill="#000000" font-size="5px" font-weight="bold" font-family="'Helvetica Neue', Helvetica, Arial-Unicode, Arial, Sans-serif">from the Noun Project</text></svg>