<svg xmlns="http://www.w3.org/2000/svg" data-name="Warstwa 1" viewBox="0 0 24 30" x="0px" y="0px"><title>Weather</title><path d="M22.5,11H20.19a8.5,8.5,0,0,0-1.66-4.11l1.6-1.61a1,1,0,0,0-1.41-1.41L17.15,5.44a8.52,8.52,0,0,0-4.4-1.88V1.5a1,1,0,0,0-2,0V3.56A8.54,8.54,0,0,0,6.43,5.38L5.11,4.05A1,1,0,1,0,3.69,5.46L5,6.81A8.42,8.42,0,0,0,3.31,11H1.5a1,1,0,0,0,0,2H3.31a8.52,8.52,0,0,0,1.88,4.4L3.87,18.72a1,1,0,0,0,0,1.41,1,1,0,0,0,1.41,0l1.36-1.35a8.5,8.5,0,0,0,4.11,1.66V22.5a1,1,0,0,0,2,0V20.44a8.38,8.38,0,0,0,4.19-1.73l1.6,1.6a1,1,0,0,0,.71.29,1,1,0,0,0,.71-.29,1,1,0,0,0,0-1.42l-1.59-1.58A8.47,8.47,0,0,0,20.19,13H22.5a1,1,0,0,0,0-2ZM11.75,18.5a6.5,6.5,0,1,1,6.5-6.5A6.51,6.51,0,0,1,11.75,18.5Z"/><text x="0" y="39" fill="#000000" font-size="5px" font-weight="bold" font-family="'Helvetica Neue', Helvetica, Arial-Unicode, Arial, Sans-serif">Created by Martin</text><text x="0" y="44" fill="#000000" font-size="5px" font-weight="bold" font-family="'Helvetica Neue', Helvetica, Arial-Unicode, Arial, Sans-serif">from the Noun Project</text></svg>